<?xml version="1.0" standalone="no"?><!DOCTYPE svg PUBLIC "-//W3C//DTD SVG 1.1//EN" "http://www.w3.org/Graphics/SVG/1.1/DTD/svg11.dtd"><svg class="icon" width="81px" height="81.00px" viewBox="0 0 1024 1024" version="1.1" xmlns="http://www.w3.org/2000/svg"><path fill="#919191" d="M511.761 783.429c33.04 0 59.823 26.767 59.823 59.785 0 33.019-26.784 59.786-59.823 59.786-33.04 0-59.823-26.767-59.823-59.786 0-33.018 26.784-59.785 59.823-59.785zM272.47 666.157c39.393 0 71.327 31.914 71.327 71.283 0 39.368-31.934 71.283-71.327 71.283s-71.327-31.915-71.327-71.283c0-39.369 31.934-71.283 71.327-71.283z m478.584 36.79c26.686 0 48.319 21.62 48.319 48.29 0 26.668-21.633 48.288-48.319 48.288-26.686 0-48.318-21.62-48.318-48.289s21.632-48.288 48.318-48.288z m-574.07-273.634c46.381 0 83.982 37.577 83.982 83.93 0 46.353-37.6 83.93-83.983 83.93-46.382 0-83.982-37.577-83.982-83.93 0-46.353 37.6-83.93 83.982-83.93z m660.353 45.99c19.697 0 35.664 15.956 35.664 35.64 0 19.685-15.967 35.642-35.664 35.642-19.696 0-35.663-15.957-35.663-35.641 0-19.685 15.967-35.642 35.663-35.642zM271.32 178.672c52.735 0 95.486 42.724 95.486 95.427 0 52.703-42.75 95.427-95.486 95.427-52.736 0-95.487-42.724-95.487-95.427 0-52.703 42.75-95.427 95.487-95.427zM511.76 66c66.079 0 119.646 53.534 119.646 119.571 0 66.038-53.567 119.572-119.646 119.572-66.079 0-119.646-53.534-119.646-119.572C392.115 119.534 445.682 66 511.761 66zM743 252.255c13.343 0 24.16 10.81 24.16 24.145 0 13.334-10.817 24.144-24.16 24.144s-24.16-10.81-24.16-24.144c0-13.335 10.817-24.145 24.16-24.145z"  /></svg>